<?xml version="1.0" encoding="utf-8"?>
<!-- Generator: Adobe Illustrator 21.0.0, SVG Export Plug-In . SVG Version: 6.00 Build 0)  -->
<svg version="1.1" id="Layer_1" xmlns="http://www.w3.org/2000/svg" xmlns:xlink="http://www.w3.org/1999/xlink" x="0px" y="0px"
	 viewBox="0 0 111 26" style="enable-background:new 0 0 111 26;" xml:space="preserve">
<style type="text/css">
	.st0{fill:#FFFFFF;}
	.st1{fill:#F9A139;}
</style>
<g>
	<path class="st0" d="M21.429,2.38v16.43l-3.234,0.012l-0.012-16.43L21.429,2.38z"/>
	<path class="st0" d="M33.405,11.362c0.435,3.561-0.656,6.99-4.679,7.569c-3.819,0.549-6.298-2.28-6.288-5.852
		c0.009-3.222,1.28-5.678,4.728-5.978C30.236,6.834,33.002,8.06,33.405,11.362z M25.296,12.821
		c-0.013,1.746,0.823,3.061,2.672,3.006c1.864-0.055,2.636-1.406,2.566-3.141c-0.067-1.655-0.85-3.043-2.672-3.006
		C26.048,9.718,25.309,11.151,25.296,12.821z"/>
	<path class="st0" d="M39.622,6.903c2.357-0.171,4.932,0.966,5.174,3.586l-0.047,6.938c0,0.469,0.102,0.941,0.305,1.418
		l-3.258,0.012l-0.129-0.832c-0.729,1.21-3.252,0.933-4.375,0.731c-1.624-0.292-2.789-1.218-3.032-2.912
		c-0.627-4.374,4.281-5.443,7.501-3.972c0.728-3.529-5.104-1.312-6.445-0.621l-0.961-2.66C36.354,7.575,38.11,7.013,39.622,6.903z
		 M37.765,15.915c0.797,0.656,2.109,0.586,3.938-0.211v-1.547c-0.982-0.382-2.275-0.843-3.343-0.521
		C37.234,13.976,36.774,15.099,37.765,15.915z"/>
	<path class="st0" d="M57.253,2.427l0.035,14.695c-0.055,0.57,0.031,1.141,0.258,1.711l-3.234-0.012l-0.059-0.68
		c-0.968,1.3-3.786,0.915-5.059,0.416c-1.976-0.776-2.961-2.88-3.077-4.902c-0.116-2.019,0.559-4.531,2.224-5.822
		c1.561-1.21,4.188-1.328,5.865-0.298V2.45L57.253,2.427z M50.831,9.909c-1.797,0.639-2.201,2.751-1.494,4.395
		c0.833,1.938,3.399,1.998,4.811,0.709v-4.617C52.937,9.716,51.831,9.554,50.831,9.909z"/>
	<path class="st0" d="M62.614,4.255c-0.023,2.478-3.452,2.436-3.457-0.053C59.152,1.677,62.637,1.799,62.614,4.255z M62.444,6.856
		L62.433,18.81h-3.234L59.175,6.856H62.444z"/>
	<path class="st0" d="M67.179,7.208l-0.012,1.055c3.352-2.524,7.846-1.161,8.25,3.258c0.165,1.802-0.667,3.404-1.465,4.957
		c-0.751,1.462-1.349,3.257,0.199,4.441l-2.098,2.18c-1.355-1.127-1.975-2.551-1.841-4.313c0.153-2.014,1.478-3.439,1.891-5.33
		c0.295-1.351-0.019-2.987-1.487-3.427c-1.03-0.309-3.266-0.184-3.438,1.222l-0.012,7.594l-3.223-0.035V7.22L67.179,7.208z"/>
	<path class="st0" d="M76.272,22.231l1.793-2.133c1.255,0.688,5.537,2.25,5.695-0.434l-0.012-1.137
		c-4.134,2.539-8.522-1.448-8.109-5.734c0.194-2.016,1.322-4.276,3.214-5.189c1.241-0.599,3.97-0.989,4.942,0.318l0.012-0.867h3.023
		l0.047,12.246c-0.049,2.375-1.338,3.879-3.652,4.289C80.892,24.005,78.177,23.76,76.272,22.231z M83.69,15.669v-4.617
		c-2.154-1.966-5.079-0.454-5.097,2.313C78.574,16.264,81.474,16.913,83.69,15.669z"/>
	<path class="st0" d="M88.243,17.063c0.024-2.499,3.686-2.459,3.691,0.053C91.94,19.661,88.22,19.543,88.243,17.063z"/>
	<path class="st0" d="M96.716,4.255c-0.023,2.478-3.452,2.436-3.457-0.053C93.254,1.677,96.739,1.799,96.716,4.255z M96.546,6.856
		L96.534,18.81H93.3L93.276,6.856H96.546z"/>
	<path class="st0" d="M108.792,11.362c0.435,3.561-0.656,6.99-4.679,7.569c-3.819,0.549-6.298-2.28-6.288-5.852
		c0.009-3.222,1.28-5.678,4.728-5.978C105.623,6.834,108.389,8.06,108.792,11.362z M100.683,12.821
		c-0.013,1.746,0.823,3.061,2.672,3.006c1.864-0.055,2.636-1.406,2.566-3.141c-0.067-1.655-0.85-3.043-2.672-3.006
		C101.435,9.718,100.695,11.151,100.683,12.821z"/>
</g>
<path class="st1" d="M12.201,2H3.805c-0.99,0-1.799,0.81-1.799,1.799v4.648c0,0.99,0.81,1.799,1.799,1.799h5.577
	c0.06,0.45,0.27,0.84,0.555,1.139c0.36,0.375,0.765,0.615,1.364,0.6c-0.21-0.315-0.3-1.079-0.3-1.544c0-0.06,0-0.12,0-0.195h1.199
	c0.99,0,1.799-0.81,1.799-1.799V3.799C14,2.81,13.19,2,12.201,2z"/>
<circle class="st0" cx="5.004" cy="6.198" r="0.9">
<animate  accumulate="none" additive="replace" attributeName="opacity" begin="0s" calcMode="linear" dur="1" fill="remove" keyTimes="0;0.2;1" repeatCount="indefinite" restart="always" values="0;1;1">
	</animate>
</circle>
<circle class="st0" cx="8.003" cy="6.198" r="0.9">
<animate  accumulate="none" additive="replace" attributeName="opacity" begin="0s" calcMode="linear" dur="1" fill="remove" keyTimes="0;0.2;0.4;1" repeatCount="indefinite" restart="always" values="0;0;1;1">
	</animate>
</circle>
<circle class="st0" cx="11.001" cy="6.198" r="0.9">
<animate  accumulate="none" additive="replace" attributeName="opacity" begin="0s" calcMode="linear" dur="1" fill="remove" keyTimes="0;0.4;0.6;1" repeatCount="indefinite" restart="always" values="0;0;1;1">
	</animate>
</circle>
</svg>
